<svg id="Layer_3" enable-background="new 0 0 64 64" height="512" viewBox="0 0 64 64" width="512" xmlns="http://www.w3.org/2000/svg"><g><path d="m38 34 5 9-4 3 1 4-8 12 5-28" fill="#f4b2b0"/><path d="m26 34-5 9 4 3-1 4 8 12-5-28" fill="#f4b2b0"/><g fill="#b3404a"><path d="m38.571 33.029c2.733-1.797 4.683-4.679 5.248-8.029h.181c2.206 0 4-1.794 4-4 0-1.927-1.37-3.54-3.187-3.917l.956-1.434c1.46-2.19 2.231-4.737 2.231-7.368 0-4.014-3.267-7.281-7.281-7.281-1.375 0-2.668.536-3.641 1.508l-.078.078-.078-.078c-.972-.972-2.265-1.508-3.641-1.508h-8.605c-4.784 0-8.676 3.892-8.676 8.676 0 1.718.504 3.382 1.457 4.812l1.73 2.595c-1.817.377-3.187 1.99-3.187 3.917 0 2.206 1.794 4 4 4h.181c.566 3.35 2.515 6.232 5.248 8.029-7.454.303-13.429 6.444-13.429 13.971v15c0 .553.448 1 1 1h38c.552 0 1-.447 1-1v-15c0-7.527-5.975-13.668-13.429-13.971zm-.541 13.213.893 3.571-5.095 7.643 3.907-21.877 3.968 7.144-3.303 2.477c-.322.241-.468.653-.37 1.042zm-12.43-1.042-3.302-2.477 3.968-7.144 3.907 21.877-5.095-7.643.893-3.571c.097-.389-.049-.801-.371-1.042zm2.852-8.758 2.207 1.766-1.002 1.503-.683-.342zm1.101 5.453c.143.071.296.105.447.105.325 0 .642-.159.833-.445l1.167-1.752 1.168 1.752c.191.287.507.445.832.445.151 0 .304-.034.447-.105l.14-.07-2.587 14.487-2.587-14.487zm5.472-2.526-.683.342-1.002-1.503 2.207-1.766zm-.876-4.369-2.149 1.72-2.149-1.72zm-.149-18c-.552 0-1 .448-1 1v1h-2v-1c0-.552-.448-1-1-1h-8v-2h4c2.543 0 4.774-1.363 6-3.397 1.226 2.034 3.457 3.397 6 3.397h4v2zm5 2v2h-4v-2zm-10 0v2h-4v-2zm17 2c0 1.103-.897 2-2 2v-4c1.103 0 2 .897 2 2zm-26.879-7.621c-.733-1.101-1.121-2.381-1.121-3.703 0-3.681 2.995-6.676 6.676-6.676h8.605c.841 0 1.632.328 2.227.922l.785.785c.391.391 1.023.391 1.414 0l.785-.785c.594-.594 1.385-.922 2.227-.922 2.912 0 5.281 2.369 5.281 5.281 0 2.235-.655 4.399-1.895 6.258l-.105.159v-.698c0-.552-.448-1-1-1h-5c-2.757 0-5-2.243-5-5 0-.552-.448-1-1-1s-1 .448-1 1c0 2.757-2.243 5-5 5h-5c-.552 0-1 .448-1 1v.697zm-1.121 7.621c0-1.103.897-2 2-2v4c-1.103 0-2-.897-2-2zm4 2v-4h1v3c0 .552.448 1 1 1h6c.552 0 1-.448 1-1v-1h2v1c0 .552.448 1 1 1h6c.552 0 1-.448 1-1v-3h1v4c0 5.514-4.486 10-10 10s-10-4.486-10-10zm-8 24c0-6.01 4.446-10.988 10.219-11.853l-4.093 7.368c-.243.436-.126.985.274 1.285l3.469 2.602-.839 3.356c-.068.273-.018.562.138.797l6.964 10.445h-10.132v-15h-2v15h-4zm36 14h-4v-15h-2v15h-10.132l6.964-10.445c.156-.234.207-.523.138-.797l-.839-3.356 3.469-2.602c.4-.3.517-.849.274-1.285l-4.093-7.368c5.773.865 10.219 5.843 10.219 11.853z"/><path d="m36 27v-1h-2v1c0 1.103-.897 2-2 2s-2-.897-2-2v-1h-2v1c0 2.206 1.794 4 4 4s4-1.794 4-4z"/></g></g></svg>